<svg xmlns="http://www.w3.org/2000/svg" style="display: none;">
  <!-- Upvote icon -->
  <symbol id="icon-upvote" viewBox="0 0 24 24">
    <path
      d="M5 15l7-7 7 7"
      stroke-linecap="round"
      stroke-linejoin="round"
      stroke-width="2"
    />
  </symbol>

  <!-- Comment icon -->
  <symbol id="icon-comment" viewBox="0 0 24 24">
    <path d="M21 11.5a8.38 8.38 0 0 1-.9 3.8 8.5 8.5 0 0 1-7.6 4.7 8.38 8.38 0 0 1-3.8-.9L3 21l1.9-5.7a8.38 8.38 0 0 1-.9-3.8 8.5 8.5 0 0 1 4.7-7.6 8.38 8.38 0 0 1 3.8-.9h.5a8.48 8.48 0 0 1 8 8v.5z" stroke-width="2" stroke-linecap="round" stroke-linejoin="round"/>
  </symbol>

  <symbol id="icon-heart" viewBox="0 0 24 24">
    <path
      stroke-linecap="round"
      stroke-linejoin="round"
      stroke-width="2"
      d="M4.318 6.318a4.5 4.5 0 000 6.364L12 20.364l7.682-7.682a4.5 4.5 0 00-6.364-6.364L12 7.636l-1.318-1.318a4.5 4.5 0 00-6.364 0z" />
  </symbol>
  <symbol id="icon-check-mark" viewbox="0 0 24 24">
    <path
      stroke-linecap="round"
      stroke-linejoin="round"
      stroke-width="2"
      d="M9 12l2 2 4-4m6 2a9 9 0 11-18 0 9 9 0 0118 0z" />
  </symbol>

  <symbol id="icon-back-arrow" viewBox="0 -960 960 960" fill="currentColor">
    <path d="m313-440 224 224-57 56-320-320 320-320 57 56-224 224h487v80H313Z"/>
  </symbol>

  <symbol id="icon-settings" viewBox="0 -960 960 960" fill="currentColor">
    <path d="m370-80-16-128q-13-5-24.5-12T307-235l-119 50L78-375l103-78q-1-7-1-13.5v-27q0-6.5 1-13.5L78-585l110-190 119 50q11-8 23-15t24-12l16-128h220l16 128q13 5 24.5 12t22.5 15l119-50 110 190-103 78q1 7 1 13.5v27q0 6.5-2 13.5l103 78-110 190-118-50q-11 8-23 15t-24 12L590-80H370Zm70-80h79l14-106q31-8 57.5-23.5T639-327l99 41 39-68-86-65q5-14 7-29.5t2-31.5q0-16-2-31.5t-7-29.5l86-65-39-68-99 42q-22-23-48.5-38.5T533-694l-13-106h-79l-14 106q-31 8-57.5 23.5T321-633l-99-41-39 68 86 64q-5 15-7 30t-2 32q0 16 2 31t7 30l-86 65 39 68 99-42q22 23 48.5 38.5T427-266l13 106Zm42-180q58 0 99-41t41-99q0-58-41-99t-99-41q-59 0-99.5 41T342-480q0 58 40.5 99t99.5 41Zm-2-140Z"/>
  </symbol>

  <symbol id="icon-info" viewBox="0 -960 960 960" fill="currentColor">
    <path d="M440-280h80v-240h-80v240Zm40-320q17 0 28.5-11.5T520-640q0-17-11.5-28.5T480-680q-17 0-28.5 11.5T440-640q0 17 11.5 28.5T480-600Zm0 520q-83 0-156-31.5T197-197q-54-54-85.5-127T80-480q0-83 31.5-156T197-763q54-54 127-85.5T480-880q83 0 156 31.5T763-763q54 54 85.5 127T880-480q0 83-31.5 156T763-197q-54 54-127 85.5T480-80Zm0-80q134 0 227-93t93-227q0-134-93-227t-227-93q-134 0-227 93t-93 227q0 134 93 227t227 93Zm0-320Z"/>
  </symbol>

  <symbol id="icon-checkmark" viewBox="0 0 20 20" fill="currentColor">
    <path d="M16.707 5.293a1 1 0 010 1.414l-8 8a1 1 0 01-1.414 0l-4-4a1 1 0 011.414-1.414L8 12.586l7.293-7.293a1 1 0 011.414 0z" />
  </symbol>

  <symbol id="icon-history" viewBox="0 -960 960 960" fill="currentColor">
  <path d="M480-120q-138 0-240.5-91.5T122-440h82q14 104 92.5 172T480-200q117 0 198.5-81.5T760-480q0-117-81.5-198.5T480-760q-69 0-129 32t-101 88h110v80H120v-240h80v94q51-64 124.5-99T480-840q75 0 140.5 28.5t114 77q48.5 48.5 77 114T840-480q0 75-28.5 140.5t-77 114q-48.5 48.5-114 77T480-120Zm112-192L440-464v-216h80v184l128 128-56 56Z"/>
  </symbol>

  <symbol id="icon-enter" viewBox="0 -960 960 960" fill="currentColor">
    <path d="M360-240 120-480l240-240 56 56-144 144h488v-160h80v240H272l144 144-56 56Z"/>
  </symbol>


  <symbol id="icon-filter" viewBox="0 -960 960 960" fill="currentColor">
    <path d="M440-160q-17 0-28.5-11.5T400-200v-240L168-736q-15-20-4.5-42t36.5-22h560q26 0 36.5 22t-4.5 42L560-440v240q0 17-11.5 28.5T520-160h-80Zm40-308 198-252H282l198 252Zm0 0Z"/>
  </symbol>

  <symbol id="icon-tick" viewBox="0 0 20 20" fill="currentColor">
    <path
      fill-rule="evenodd"
      d="M10 18a8 8 0 100-16 8 8 0 000 16zm3.857-9.809a.75.75 0 00-1.214-.882l-3.483 4.79-1.88-1.88a.75.75 0 10-1.06 1.061l2.5 2.5a.75.75 0 001.137-.089l4-5.5z"
      clip-rule="evenodd" />
  </symbol>

  <symbol id="icon-check" viewBox="0 -960 960 960" fill="currentColor">
    <path d="M382-240 154-468l57-57 171 171 367-367 57 57-424 424Z"/>
  </symbol>


  <symbol id="icon-link" viewBox="0 -960 960 960" fill="currentColor">
    <path d="M440-280H280q-83 0-141.5-58.5T80-480q0-83 58.5-141.5T280-680h160v80H280q-50 0-85 35t-35 85q0 50 35 85t85 35h160v80ZM320-440v-80h320v80H320Zm200 160v-80h160q50 0 85-35t35-85q0-50-35-85t-85-35H520v-80h160q83 0 141.5 58.5T880-480q0 83-58.5 141.5T680-280H520Z"/>
  </symbol>

  <symbol id="icon-send" viewBox="0 -960 960 960" fill="currentColor">
    <path d="M120-160v-640l760 320-760 320Zm80-120 474-200-474-200v140l240 60-240 60v140Zm0 0v-400 400Z"/>
  </symbol>

  <symbol id="icon-save" viewBox="0 -960 960 960" fill="currentColor">
    <path d="M840-680v480q0 33-23.5 56.5T760-120H200q-33 0-56.5-23.5T120-200v-560q0-33 23.5-56.5T200-840h480l160 160Zm-80 34L646-760H200v560h560v-446ZM480-240q50 0 85-35t35-85q0-50-35-85t-85-35q-50 0-85 35t-35 85q0 50 35 85t85 35ZM240-560h360v-160H240v160Zm-40-86v446-560 114Z"/>
  </symbol>

  <symbol id="icon-content_copy" viewBox="0 -960 960 960" fill="currentColor">
    <path d="M360-240q-33 0-56.5-23.5T280-320v-480q0-33 23.5-56.5T360-880h360q33 0 56.5 23.5T800-800v480q0 33-23.5 56.5T720-240H360Zm0-80h360v-480H360v480ZM200-80q-33 0-56.5-23.5T120-160v-560h80v560h440v80H200Zm160-240v-480 480Z"/>
  </symbol>

  <symbol id="icon-open_in_new" viewBox="0 -960 960 960" fill="currentColor">
    <path d="M200-120q-33 0-56.5-23.5T120-200v-560q0-33 23.5-56.5T200-840h280v80H200v560h560v-280h80v280q0 33-23.5 56.5T760-120H200Zm188-212-56-56 372-372H560v-80h280v280h-80v-144L388-332Z"/>
  </symbol>

  <symbol id="icon-delete" viewBox="0 -960 960 960" fill="currentColor">
    <path d="M280-120q-33 0-56.5-23.5T200-200v-520h-40v-80h200v-40h240v40h200v80h-40v520q0 33-23.5 56.5T680-120H280Zm400-600H280v520h400v-520ZM360-280h80v-360h-80v360Zm160 0h80v-360h-80v360ZM280-720v520-520Z"/>
  </symbol>

  <symbol id="icon-mail" viewBox="0 -960 960 960" fill="currentColor">
    <path d="M160-160q-33 0-56.5-23.5T80-240v-480q0-33 23.5-56.5T160-800h640q33 0 56.5 23.5T880-720v480q0 33-23.5 56.5T800-160H160Zm320-280L160-640v400h640v-400L480-440Zm0-80 320-200H160l320 200ZM160-640v-80 480-400Z"/>
  </symbol>

  <symbol id="icon-password" viewBox="0 -960 960 960" fill="currentColor">
    <path d="M80-200v-80h800v80H80Zm46-242-52-30 34-60H40v-60h68l-34-58 52-30 34 58 34-58 52 30-34 58h68v60h-68l34 60-52 30-34-60-34 60Zm320 0-52-30 34-60h-68v-60h68l-34-58 52-30 34 58 34-58 52 30-34 58h68v60h-68l34 60-52 30-34-60-34 60Zm320 0-52-30 34-60h-68v-60h68l-34-58 52-30 34 58 34-58 52 30-34 58h68v60h-68l34 60-52 30-34-60-34 60Z"/>
  </symbol>
  <symbol id="icon-account" viewBox="0 -960 960 960" fill="currentColor">
    <path d="M234-276q51-39 114-61.5T480-360q69 0 132 22.5T726-276q35-41 54.5-93T800-480q0-133-93.5-226.5T480-800q-133 0-226.5 93.5T160-480q0 59 19.5 111t54.5 93Zm246-164q-59 0-99.5-40.5T340-580q0-59 40.5-99.5T480-720q59 0 99.5 40.5T620-580q0 59-40.5 99.5T480-440Zm0 360q-83 0-156-31.5T197-197q-54-54-85.5-127T80-480q0-83 31.5-156T197-763q54-54 127-85.5T480-880q83 0 156 31.5T763-763q54 54 85.5 127T880-480q0 83-31.5 156T763-197q-54 54-127 85.5T480-80Zm0-80q53 0 100-15.5t86-44.5q-39-29-86-44.5T480-280q-53 0-100 15.5T294-220q39 29 86 44.5T480-160Zm0-360q26 0 43-17t17-43q0-26-17-43t-43-17q-26 0-43 17t-17 43q0 26 17 43t43 17Zm0-60Zm0 360Z"/>
  </symbol>
  <symbol id="icon-close" viewBox="0 -960 960 960" fill="currentColor">
      <path d="m256-200-56-56 224-224-224-224 56-56 224 224 224-224 56 56-224 224 224 224-56 56-224-224-224 224Z"/>
  </symbol>
  <symbol id="icon-arrow" viewBox="0 -960 960 960" fill="currentColor">
      <path d="m560-240-56-58 142-142H160v-80h486L504-662l56-58 240 240-240 240Z"/>
  </symbol>
  <symbol id="icon-card" viewBox="0 -960 960 960" fill="currentColor">
    <path d="M880-720v480q0 33-23.5 56.5T800-160H160q-33 0-56.5-23.5T80-240v-480q0-33 23.5-56.5T160-800h640q33 0 56.5 23.5T880-720Zm-720 80h640v-80H160v80Zm0 160v240h640v-240H160Zm0 240v-480 480Z"/>
  </symbol>
  <symbol id="icon-grid" viewBox="0 -960 960 960" fill="currentColor">
    <path d="M120-520v-320h320v320H120Zm0 400v-320h320v320H120Zm400-400v-320h320v320H520Zm0 400v-320h320v320H520ZM200-600h160v-160H200v160Zm400 0h160v-160H600v160Zm0 400h160v-160H600v160Zm-400 0h160v-160H200v160Zm400-400Zm0 240Zm-240 0Zm0-240Z"/>
  </symbol>

  <symbol id="icon-edit" viewBox="0 -960 960 960" fill="currentColor">
    <path d="M200-200h57l391-391-57-57-391 391v57Zm-80 80v-170l528-527q12-11 26.5-17t30.5-6q16 0 31 6t26 18l55 56q12 11 17.5 26t5.5 30q0 16-5.5 30.5T817-647L290-120H120Zm640-584-56-56 56 56Zm-141 85-28-29 57 57-29-28Z"/>
  </symbol>

  <symbol id="icon-content_paste" viewBox="0 -960 960 960" fill="currentColor">
    <path d="M200-120q-33 0-56.5-23.5T120-200v-560q0-33 23.5-56.5T200-840h167q11-35 43-57.5t70-22.5q40 0 71.5 22.5T594-840h166q33 0 56.5 23.5T840-760v560q0 33-23.5 56.5T760-120H200Zm0-80h560v-560h-80v120H280v-120h-80v560Zm280-560q17 0 28.5-11.5T520-800q0-17-11.5-28.5T480-840q-17 0-28.5 11.5T440-800q0 17 11.5 28.5T480-760Z"/>
  </symbol>

  <symbol id="icon-download" viewBox="0 -960 960 960" fill="currentColor">
    <path d="M480-320 280-520l56-58 104 104v-326h80v326l104-104 56 58-200 200ZM240-160q-33 0-56.5-23.5T160-240v-120h80v120h480v-120h80v120q0 33-23.5 56.5T720-160H240Z"/>
  </symbol>

  <symbol id="icon-visibility" viewBox="0 -960 960 960" fill="currentColor">
    <path d="M480-320q75 0 127.5-52.5T660-500q0-75-52.5-127.5T480-680q-75 0-127.5 52.5T300-500q0 75 52.5 127.5T480-320Zm0-72q-45 0-76.5-31.5T372-500q0-45 31.5-76.5T480-608q45 0 76.5 31.5T588-500q0 45-31.5 76.5T480-392Zm0 192q-146 0-266-81.5T40-500q54-137 174-218.5T480-800q146 0 266 81.5T920-500q-54 137-174 218.5T480-200Zm0-300Zm0 220q113 0 207.5-59.5T832-500q-50-101-144.5-160.5T480-720q-113 0-207.5 59.5T128-500q50 101 144.5 160.5T480-280Z"/>
  </symbol>

  <symbol id="icon-visibility_off" viewBox="0 -960 960 960" fill="currentColor">
    <path d="m644-428-58-58q9-47-27-88t-93-32l-58-58q17-8 34.5-12t37.5-4q75 0 127.5 52.5T660-500q0 20-4 37.5T644-428Zm128 126-58-56q38-29 67.5-63.5T832-500q-50-101-144.5-160.5T480-720q-29 0-57 4t-55 12l-62-62q41-17 84-25.5t90-8.5q146 0 266 81.5T920-500q-26 64-68.5 116T772-302Zm-20 236L624-222q-35 11-70.5 16.5T480-200q-146 0-266-81.5T40-500q20-52 55.5-101.5T182-696L56-822l42-42 726 726-42 42ZM222-624q-29 26-53 57t-41 67q50 101 144.5 160.5T480-280q20 0 39-2.5t39-7.5l-36-38q-11 3-21 4.5t-21 1.5q-75 0-127.5-52.5T300-500q0-11 1.5-21t4.5-21l-84-82Zm136 140Zm204 40Z"/>
  </symbol>


  <symbol id="icon-receipt" viewBox="0 -960 960 960" fill="currentColor">
    <path d="M240-80q-50 0-85-35t-35-85v-120h120v-560l60 60 60-60 60 60 60-60 60 60 60-60 60 60 60-60 60 60 60-60v680q0 50-35 85t-85 35H240Zm480-80q17 0 28.5-11.5T760-200v-560H320v440h360v120q0 17 11.5 28.5T720-160ZM360-600v-80h240v80H360Zm0 120v-80h240v80H360Zm320-120q-17 0-28.5-11.5T640-640q0-17 11.5-28.5T680-680q17 0 28.5 11.5T720-640q0 17-11.5 28.5T680-600Zm0 120q-17 0-28.5-11.5T640-520q0-17 11.5-28.5T680-560q17 0 28.5 11.5T720-520q0 17-11.5 28.5T680-480ZM240-160h360v-80H200v40q0 17 11.5 28.5T240-160Zm-40 0v-80 80Z"/>
  </symbol>

  <symbol id="icon-hamburger" viewBox="0 -960 960 960" fill="currentColor">
      <path d="M120-240v-80h720v80H120Zm0-200v-80h720v80H120Zm0-200v-80h720v80H120Z"/>
  </symbol>

  <symbol id="icon-warning" viewBox="0 -960 960 960" fill="currentColor">
      <path d="m40-120 440-760 440 760H40Zm138-80h604L480-720 178-200Zm302-40q17 0 28.5-11.5T520-280q0-17-11.5-28.5T480-320q-17 0-28.5 11.5T440-280q0 17 11.5 28.5T480-240Zm-40-120h80v-200h-80v200Zm40-100Z"/>
  </symbol>

  <symbol id="icon-auto_awesome" viewBox="0 0 24 24" fill="currentColor">
      <path d="M19 9l1.25-2.75L23 5l-2.75-1.25L19 1l-1.25 2.75L15 5l2.75 1.25L19 9zm-7.5.5L9 4 6.5 9.5 1 12l5.5 2.5L9 20l2.5-5.5L17 12l-5.5-2.5zM19 15l-1.25 2.75L15 19l2.75 1.25L19 23l1.25-2.75L23 19l-2.75-1.25L19 15z"/>
  </symbol>

  <symbol id="icon-draft" viewBox="0 -960 960 960" fill="currentColor">
      <path d="M240-80q-33 0-56.5-23.5T160-160v-640q0-33 23.5-56.5T240-880h320l240 240v480q0 33-23.5 56.5T720-80H240Zm280-520v-200H240v640h480v-440H520ZM240-800v200-200 640-640Z"/>
  </symbol>

  <symbol id="icon-person" viewBox="0 -960 960 960" fill="currentColor">
      <path d="M480-480q-66 0-113-47t-47-113q0-66 47-113t113-47q66 0 113 47t47 113q0 66-47 113t-113 47ZM160-160v-112q0-34 17.5-62.5T224-378q62-31 126-46.5T480-440q66 0 130 15.5T736-378q29 15 46.5 43.5T800-272v112H160Zm80-80h480v-32q0-11-5.5-20T700-306q-54-27-109-40.5T480-360q-56 0-111 13.5T260-306q-9 5-14.5 14t-5.5 20v32Zm240-320q33 0 56.5-23.5T560-640q0-33-23.5-56.5T480-720q-33 0-56.5 23.5T400-640q0 33 23.5 56.5T480-560Zm0-80Zm0 400Z"/>
  </symbol>
  <symbol id="icon-bookmark_add" viewBox="0 -960 960 960" fill="currentColor">
      <path d="M200-120v-640q0-33 23.5-56.5T280-840h400q33 0 56.5 23.5T760-760v640L480-240 200-120Zm80-122 200-86 200 86v-518H280v518Zm0-518h400-400Z"/>
  </symbol>

  <symbol id="icon-cancel_schedule_send" viewBox="0 -960 960 960" fill="currentColor">
    <path d="m609-181 70-70 70 70 30-30-69-69 70-70-30-30-70 70-70-70-30 30 70 70-70 70 29 29Zm-489 21v-640l572 240h-12q-35 0-66 8t-60 22L200-680v140l240 60-240 60v140l216-92q-8 23-12 45.5t-4 46.5v2L120-160Zm418.5 21.5Q480-197 480-280t58.5-141.5Q597-480 680-480t141.5 58.5Q880-363 880-280t-58.5 141.5Q763-80 680-80t-141.5-58.5ZM200-372v-308 400-92Z"/>
  </symbol>
</svg>
